<?xml version="1.0" standalone="no"?>
<!DOCTYPE svg PUBLIC "-//W3C//DTD SVG 20010904//EN"
 "http://www.w3.org/TR/2001/REC-SVG-20010904/DTD/svg10.dtd">
<svg version="1.0" xmlns="http://www.w3.org/2000/svg"
 width="650.000000pt" height="810.000000pt" viewBox="0 0 650.000000 810.000000"
 preserveAspectRatio="xMidYMid meet">

<g transform="translate(0.000000,810.000000) scale(0.100000,-0.100000)"
fill="#000000" stroke="none">
<path d="M5780 7383 c-21 -11 -42 -33 -54 -56 -16 -33 -17 -45 -7 -77 17 -57
54 -82 115 -79 43 3 51 0 70 -24 28 -35 42 -23 16 13 -19 27 -19 27 2 70 20
39 20 46 7 83 -24 70 -89 100 -149 70z m110 -38 c35 -35 34 -95 -1 -131 -59
-59 -154 -17 -154 67 0 34 6 46 34 71 27 25 39 29 65 24 17 -4 42 -18 56 -31z"/>
<path d="M670 7240 c0 -60 4 -100 10 -100 6 0 10 32 10 75 0 41 3 75 8 75 4 0
28 -34 54 -75 26 -41 52 -75 58 -75 6 0 10 37 10 100 0 118 -18 136 -22 23
l-3 -77 -50 77 c-27 42 -56 77 -62 77 -10 0 -13 -27 -13 -100z"/>
<path d="M1270 7335 c0 -3 16 -31 35 -61 25 -39 35 -66 35 -94 0 -22 5 -40 10
-40 6 0 10 19 10 43 0 32 9 55 35 94 38 56 40 63 25 63 -5 0 -23 -23 -39 -51
l-29 -52 -32 52 c-27 44 -50 65 -50 46z"/>
<path d="M1683 7240 c0 -58 2 -91 4 -73 7 53 26 58 52 13 12 -22 26 -40 32
-40 14 0 12 6 -17 51 l-26 41 28 29 c21 22 24 29 12 29 -9 0 -28 -14 -42 -31
-29 -34 -33 -30 -39 41 -2 25 -4 -2 -4 -60z"/>
<path d="M880 7270 c-43 -43 -13 -130 44 -130 25 0 62 28 51 38 -3 3 -11 0
-17 -6 -25 -25 -78 -8 -78 25 0 9 16 13 50 13 43 0 50 3 50 20 0 26 -34 60
-60 60 -11 0 -29 -9 -40 -20z m68 -12 c21 -21 13 -28 -28 -28 -22 0 -40 4 -40
8 0 14 23 32 40 32 9 0 21 -5 28 -12z"/>
<path d="M1004 7273 c3 -10 12 -44 21 -76 19 -68 36 -70 48 -6 13 65 22 66 36
4 7 -30 16 -55 21 -55 10 0 54 139 47 147 -3 2 -14 -22 -25 -54 l-19 -58 -12
45 c-7 25 -14 51 -16 58 -9 27 -24 9 -36 -43 -7 -30 -15 -55 -19 -55 -4 0 -12
25 -19 55 -7 30 -17 55 -22 55 -6 0 -8 -8 -5 -17z"/>
<path d="M1452 7274 c-45 -31 -18 -134 36 -134 38 0 62 29 62 75 0 45 -24 75
-60 75 -9 0 -26 -7 -38 -16z m67 -18 c17 -20 10 -77 -11 -90 -26 -16 -52 4
-56 43 -4 36 12 61 38 61 10 0 23 -6 29 -14z"/>
<path d="M1583 7215 c0 -41 4 -75 8 -75 5 0 9 21 9 46 0 51 14 84 35 84 8 0
15 5 15 10 0 14 -23 13 -38 -2 -9 -9 -12 -9 -12 0 0 7 -4 12 -8 12 -5 0 -8
-34 -9 -75z"/>
<path d="M6480 5110 c0 -5 5 -10 10 -10 6 0 10 5 10 10 0 6 -4 10 -10 10 -5 0
-10 -4 -10 -10z"/>
<path d="M6440 5020 l0 -40 -40 0 -40 0 0 -40 0 -40 -40 0 -40 0 0 -40 0 -40
-40 0 -40 0 0 -40 0 -40 -40 0 -40 0 0 -40 0 -40 -40 0 -40 0 0 -40 0 -40 -40
0 -40 0 0 -40 0 -40 -40 0 -40 0 0 -40 0 -40 -40 0 -40 0 0 -40 0 -40 -40 0
-40 0 0 -40 0 -40 -40 0 -40 0 0 -40 0 -40 -40 0 -40 0 0 -40 0 -40 -40 0 -40
0 0 -40 0 -40 -40 0 -40 0 0 -40 0 -40 -40 0 -40 0 0 -40 0 -40 -40 0 -40 0 0
-40 0 -40 -40 0 -40 0 0 -40 0 -40 -40 0 -40 0 0 -40 0 -40 -40 0 -40 0 0 -40
0 -40 -40 0 -40 0 0 -40 c0 -33 -3 -40 -20 -40 -11 0 -20 -4 -20 -10 0 -5 -9
-10 -20 -10 -11 0 -20 5 -20 10 0 6 -9 10 -20 10 -11 0 -20 -4 -20 -10 0 -5 9
-10 20 -10 16 0 20 -7 20 -30 0 -23 -4 -30 -20 -30 -13 0 -20 -7 -20 -20 0
-17 -7 -20 -40 -20 -48 0 -52 -14 -7 -26 l32 -8 -32 -3 c-25 -3 -33 -9 -33
-24 0 -16 -7 -19 -40 -19 -48 0 -52 -14 -7 -26 l32 -8 -32 -3 c-25 -3 -33 -9
-33 -24 0 -16 -7 -19 -40 -19 -48 0 -52 -14 -7 -26 l32 -8 -32 -3 c-25 -3 -33
-9 -33 -24 0 -16 -7 -19 -40 -19 -48 0 -52 -14 -7 -26 l32 -8 -32 -3 c-25 -3
-33 -9 -33 -24 0 -16 -7 -19 -40 -19 -48 0 -52 -14 -7 -26 l32 -8 -32 -3 c-25
-3 -33 -9 -33 -24 0 -16 -7 -19 -40 -19 -48 0 -52 -14 -7 -26 l32 -8 -32 -3
c-25 -3 -33 -9 -33 -24 0 -16 -7 -19 -40 -19 -48 0 -52 -14 -7 -26 l32 -8 -32
-3 c-25 -3 -33 -9 -33 -24 0 -16 -7 -19 -40 -19 -25 0 -40 5 -41 13 -5 73 -7
89 -13 94 -3 4 -6 -2 -6 -12 0 -15 -2 -16 -17 -4 -14 12 -13 9 2 -15 24 -36
26 -65 7 -93 -10 -16 -11 -23 -3 -23 7 0 9 -5 6 -10 -4 -6 -10 -8 -15 -5 -4 3
-7 -3 -6 -13 0 -9 -3 -17 -9 -17 -5 1 -25 -14 -43 -32 -24 -23 -29 -33 -18
-33 9 0 16 5 16 11 0 5 4 7 10 4 6 -3 10 -11 10 -16 0 -6 -4 -8 -9 -4 -5 3
-12 1 -15 -4 -4 -5 2 -12 11 -14 13 -3 12 -5 -5 -6 -13 0 -21 -5 -18 -9 4 -7
-3 -8 -46 -3 -4 1 -4 8 -1 18 5 12 3 14 -8 7 -8 -4 -34 -11 -59 -15 l-45 -6
50 -2 c38 -1 46 -4 35 -12 -12 -8 -10 -9 8 -4 18 5 22 2 22 -14 0 -12 5 -21
10 -21 6 0 10 5 10 10 0 16 67 12 73 -4 4 -10 0 -12 -13 -9 -18 5 -80 -16 -80
-27 0 -3 -10 -6 -22 -7 -20 -2 -21 -1 -5 8 21 12 22 29 2 29 -8 0 -15 -5 -15
-11 0 -6 -9 -8 -22 -4 -18 5 -20 4 -8 -4 13 -9 13 -11 -1 -11 -12 0 -15 -7
-11 -25 4 -23 2 -25 -37 -25 -49 0 -54 -14 -8 -26 l32 -8 -32 -3 c-18 -3 -33
-10 -34 -16 -3 -43 -8 -59 -23 -75 -22 -25 -28 -59 -12 -65 9 -4 13 4 12 25
-1 20 4 33 14 35 9 3 11 1 4 -4 -12 -9 -14 -53 -1 -53 4 0 5 -5 2 -10 -4 -6
-16 -8 -28 -5 -19 5 -20 5 -5 -5 12 -7 24 -8 37 -1 14 8 20 7 25 -4 4 -11 13
-14 30 -9 27 6 157 13 137 6 -9 -3 -5 -10 12 -21 55 -36 72 -70 76 -153 2 -55
-2 -90 -12 -117 -9 -21 -14 -41 -11 -45 2 -3 1 -4 -2 -1 -4 2 -21 -5 -37 -17
-46 -33 -143 -37 -197 -9 -45 23 -54 26 -45 12 3 -5 1 -12 -4 -15 -10 -7 -9
13 1 30 4 6 0 20 -10 30 -19 21 -22 35 -22 114 0 83 3 96 28 124 25 29 29 41
10 30 -8 -4 -9 -3 -5 2 5 5 16 9 24 9 9 0 18 5 20 11 2 6 -3 11 -11 11 -8 0
-13 -4 -11 -8 3 -3 -3 -6 -13 -5 -10 0 -16 -6 -16 -16 1 -10 -5 -18 -13 -18
-8 0 -12 -4 -8 -9 3 -5 1 -13 -5 -16 -6 -4 -10 -3 -9 2 3 20 -2 33 -13 30 -7
-1 -12 6 -11 17 1 21 -1 19 -50 -50 -34 -47 -38 -64 -14 -64 5 0 7 7 3 15 -4
12 -2 13 13 6 10 -6 22 -7 26 -3 5 4 5 1 1 -6 -4 -7 -12 -10 -17 -7 -5 4 -9 1
-9 -4 0 -6 -7 -11 -16 -11 -9 0 -12 -5 -8 -12 4 -7 3 -8 -5 -4 -6 4 -9 12 -6
17 4 5 2 9 -4 9 -20 0 -24 -50 -6 -70 9 -10 15 -27 12 -37 -4 -15 -5 -14 -6 4
0 12 -6 25 -12 29 -8 4 -10 -19 -7 -77 l3 -84 -52 0 c-28 0 -50 2 -48 4 2 2
-2 10 -10 17 -14 14 -9 54 7 54 5 0 4 -8 -1 -19 -8 -14 -7 -22 3 -30 11 -10
14 5 15 88 2 83 -1 101 -15 109 -8 5 -15 13 -15 18 2 19 -39 63 -54 58 -8 -4
-15 -10 -15 -16 0 -5 4 -7 9 -4 5 3 12 -1 15 -10 9 -23 8 -24 -11 -18 -16 5
-16 4 -3 -6 13 -10 11 -11 -7 -7 -20 5 -23 1 -23 -29 0 -24 4 -32 14 -28 8 3
17 0 21 -5 3 -6 11 -9 16 -6 5 4 9 1 9 -4 0 -6 -13 -11 -30 -11 -23 0 -30 -4
-30 -20 0 -17 -7 -20 -40 -20 -48 0 -52 -14 -7 -26 l32 -8 -32 -3 c-25 -3 -33
-9 -33 -24 0 -16 -7 -19 -40 -19 -48 0 -52 -14 -7 -26 l32 -8 -32 -3 c-25 -3
-33 -9 -33 -24 0 -16 -7 -19 -40 -19 -48 0 -52 -14 -7 -26 l32 -8 -32 -3 c-25
-3 -33 -9 -33 -24 0 -16 -7 -19 -40 -19 -48 0 -52 -14 -7 -26 l32 -8 -32 -3
c-25 -3 -33 -9 -33 -24 0 -16 -7 -19 -40 -19 -48 0 -52 -14 -7 -26 l32 -8 -32
-3 c-25 -3 -33 -9 -33 -24 0 -16 -7 -19 -40 -19 -48 0 -52 -14 -7 -26 l32 -8
-32 -3 c-25 -3 -33 -9 -33 -24 0 -16 -7 -19 -40 -19 -48 0 -52 -14 -7 -26 l32
-8 -32 -3 c-25 -3 -33 -9 -33 -24 0 -16 -7 -19 -40 -19 -48 0 -52 -14 -7 -26
l32 -8 -32 -3 c-25 -3 -33 -9 -33 -24 0 -16 -7 -19 -40 -19 -48 0 -52 -14 -7
-26 l32 -8 -32 -3 c-25 -3 -33 -9 -33 -24 0 -16 -7 -19 -40 -19 -48 0 -52 -14
-7 -26 l32 -8 -32 -3 c-25 -3 -33 -9 -33 -24 0 -16 -7 -19 -40 -19 -48 0 -52
-14 -7 -26 l32 -8 -32 -3 c-25 -3 -33 -9 -33 -24 0 -16 -7 -19 -40 -19 -48 0
-52 -14 -7 -26 l32 -8 -32 -3 c-25 -3 -33 -9 -33 -24 0 -16 -7 -19 -40 -19
-48 0 -52 -14 -7 -26 l32 -8 -32 -3 c-25 -3 -33 -9 -33 -24 0 -16 -7 -19 -40
-19 -48 0 -52 -14 -7 -26 l32 -8 -32 -3 c-24 -3 -33 -9 -33 -23 0 -15 -9 -20
-42 -22 l-43 -3 35 -17 35 -16 -32 -1 c-26 -1 -33 -5 -33 -21 0 -11 -4 -20
-10 -20 -5 0 -10 -9 -10 -20 0 -11 -4 -20 -10 -20 -5 0 -10 -7 -10 -16 0 -27
-25 -9 -25 18 -1 15 -6 32 -12 40 -6 7 -12 18 -13 23 -1 6 -4 12 -7 15 -3 3
-3 -6 1 -20 10 -34 10 -41 2 -74 -4 -15 -3 -25 2 -22 4 2 8 -6 8 -19 0 -13 -4
-21 -8 -19 -5 3 -6 10 -3 15 10 14 -19 10 -41 -6 -19 -15 -19 -15 1 -9 18 5
18 4 -2 -8 -27 -17 -68 -68 -54 -68 6 0 11 -9 11 -21 0 -13 4 -18 12 -13 7 4
10 3 5 -1 -4 -5 -18 -10 -30 -12 -17 -2 -19 -1 -7 7 9 6 10 10 3 10 -6 0 -15
-5 -18 -10 -5 -8 -11 -8 -19 -1 -7 6 -16 8 -19 4 -4 -3 -7 -1 -7 4 0 6 5 14
10 16 6 3 5 4 -2 3 -7 -2 -13 -9 -13 -17 0 -8 -4 -17 -10 -22 -5 -4 2 -5 18
-3 26 4 27 3 27 -34 0 -21 5 -42 12 -46 7 -5 9 -2 5 9 -3 8 1 21 9 27 8 7 14
9 14 5 0 -4 8 -1 17 6 11 10 14 10 9 2 -4 -7 -2 -13 3 -13 6 0 11 11 11 24 0
14 5 28 10 31 6 4 7 11 4 17 -4 7 0 7 13 -1 14 -7 24 -7 33 2 7 7 4 -1 -8 -17
-30 -40 -28 -56 8 -56 21 0 30 -5 30 -16 0 -8 4 -12 10 -9 5 3 7 0 4 -9 -3 -8
-2 -21 2 -27 5 -9 10 -7 15 7 12 30 11 56 -3 48 -6 -4 -8 -3 -5 3 3 5 19 8 35
5 l29 -4 -29 -76 c-17 -43 -34 -82 -39 -88 -5 -6 -7 -13 -5 -15 2 -2 -7 -5
-20 -5 -18 -2 -24 3 -24 18 0 10 4 17 9 13 5 -3 13 5 17 17 4 13 2 24 -5 26
-6 2 -9 8 -5 13 3 5 0 9 -5 9 -6 0 -11 -5 -11 -12 0 -15 -13 -1 -16 17 -1 8 4
11 11 9 9 -4 12 1 10 13 -2 10 -4 24 -4 31 -1 6 -8 12 -16 12 -21 0 -20 -68 2
-92 15 -17 14 -18 -15 -18 -30 0 -39 11 -33 44 1 4 -4 15 -11 24 -10 12 -10
14 0 8 8 -5 12 -1 12 12 0 11 -6 22 -13 25 -10 4 -14 -8 -16 -46 -2 -47 1 -54
26 -69 l28 -17 -25 3 c-42 4 -59 19 -62 54 -3 46 -18 52 -16 7 1 -34 -21 -64
-47 -65 -5 0 -3 5 5 10 12 8 9 10 -13 10 -16 0 -26 -4 -22 -10 3 -5 0 -7 -9
-4 -21 8 -39 59 -34 99 2 19 0 35 -4 35 -5 0 -8 -27 -7 -60 1 -32 5 -57 9 -55
4 2 7 -2 7 -10 0 -8 -4 -15 -9 -15 -4 0 -8 5 -8 10 0 6 -7 10 -16 10 -8 0 -13
-4 -10 -9 3 -4 -8 -7 -24 -5 -17 2 -30 -1 -30 -6 0 -6 5 -10 10 -10 6 0 10 -7
10 -15 0 -9 -9 -15 -22 -15 -19 0 -20 2 -8 10 12 7 12 10 1 10 -8 0 -11 6 -7
16 4 11 2 15 -8 11 -14 -6 -16 16 -3 29 11 11 8 26 -3 19 -11 -7 -2 23 13 42
6 9 6 13 -2 13 -7 0 -9 5 -5 12 4 7 3 8 -4 4 -6 -4 -8 -14 -5 -23 4 -10 2 -14
-4 -10 -7 5 -12 -11 -15 -44 -1 -28 1 -53 5 -56 4 -3 7 -14 5 -26 -2 -16 2
-22 14 -21 20 2 23 -7 7 -23 -16 -16 -48 -4 -42 16 4 14 -2 18 -26 18 -17 0
-31 -4 -31 -9 0 -4 5 -7 11 -6 6 2 14 -3 16 -9 3 -7 -2 -13 -11 -13 -9 0 -16
-4 -16 -10 0 -5 -9 -10 -20 -10 -12 0 -20 7 -20 16 0 13 -3 14 -13 5 -8 -6
-17 -8 -20 -4 -4 3 -7 1 -7 -5 0 -7 9 -12 20 -12 16 0 20 -7 20 -30 0 -28 -2
-30 -40 -30 l-40 0 0 -40 0 -40 -40 0 -40 0 0 -50 0 -50 2510 0 2510 0 0 2530
0 2530 -30 0 c-28 0 -30 -2 -30 -40z m-40 -70 c0 -5 -4 -10 -10 -10 -5 0 -10
5 -10 10 0 6 5 10 10 10 6 0 10 -4 10 -10z m-160 -160 c0 -5 -4 -10 -10 -10
-5 0 -10 5 -10 10 0 6 5 10 10 10 6 0 10 -4 10 -10z m-160 -160 c0 -5 -4 -10
-10 -10 -5 0 -10 5 -10 10 0 6 5 10 10 10 6 0 10 -4 10 -10z m-160 -160 c0 -5
-4 -10 -10 -10 -5 0 -10 5 -10 10 0 6 5 10 10 10 6 0 10 -4 10 -10z m-160
-160 c0 -5 -4 -10 -10 -10 -5 0 -10 5 -10 10 0 6 5 10 10 10 6 0 10 -4 10 -10z
m-160 -160 c0 -5 -4 -10 -10 -10 -5 0 -10 5 -10 10 0 6 5 10 10 10 6 0 10 -4
10 -10z m-160 -160 c0 -5 -4 -10 -10 -10 -5 0 -10 5 -10 10 0 6 5 10 10 10 6
0 10 -4 10 -10z m-160 -160 c0 -5 -4 -10 -10 -10 -5 0 -10 5 -10 10 0 6 5 10
10 10 6 0 10 -4 10 -10z m-160 -160 c0 -5 -4 -10 -10 -10 -5 0 -10 5 -10 10 0
6 5 10 10 10 6 0 10 -4 10 -10z m-160 -160 c0 -5 -4 -10 -10 -10 -5 0 -10 5
-10 10 0 6 5 10 10 10 6 0 10 -4 10 -10z m-750 -760 c11 -7 7 -10 -17 -10 -33
0 -35 -3 -36 -47 0 -12 -3 -20 -8 -17 -4 2 -5 12 -2 22 5 14 3 14 -14 -3 -14
-13 -16 -22 -9 -27 8 -5 8 -8 0 -8 -22 0 -22 13 0 44 13 17 21 37 19 44 -6 15
45 16 67 2z m-110 -113 c0 -20 0 -20 -14 -2 -8 11 -12 23 -9 28 8 13 23 -3 23
-26z m60 -32 c0 -8 -7 -15 -15 -15 -8 0 -15 7 -15 15 0 8 7 15 15 15 8 0 15
-7 15 -15z m320 -372 l0 -128 62 63 c57 58 64 62 106 62 36 0 42 -3 33 -13 -6
-8 -7 -18 -3 -22 4 -5 2 -5 -4 -2 -6 3 -33 -17 -61 -46 l-51 -52 41 -62 c22
-34 45 -59 50 -56 6 3 7 1 3 -5 -4 -7 7 -32 24 -57 l31 -45 -49 0 c-33 0 -52
5 -55 14 -3 7 -26 46 -52 85 -38 60 -48 71 -60 61 -11 -9 -15 -34 -15 -86 l0
-74 -40 0 -40 0 0 245 0 245 40 0 40 0 0 -127z m-450 103 c0 -2 -7 -6 -15 -10
-8 -3 -15 -1 -15 4 0 6 7 10 15 10 8 0 15 -2 15 -4z m350 -117 c0 -3 -5 -21
-11 -38 -8 -23 -15 -29 -22 -22 -6 6 -24 11 -40 11 -45 0 -59 -47 -55 -186 l3
-114 -37 0 c-27 0 -38 4 -38 15 0 8 -1 83 -1 165 0 83 1 158 1 168 0 15 7 17
35 14 23 -3 33 -8 28 -16 -3 -6 2 -3 13 6 31 27 124 25 124 -3z m-630 -62 c0
-4 -6 -2 -14 5 -8 7 -12 17 -9 22 5 8 23 -12 23 -27z m-28 -11 c7 4 8 2 4 -5
-9 -13 -26 -5 -25 12 0 9 2 8 6 -1 2 -6 10 -9 15 -6z m-207 -22 c11 -18 12
-24 4 -18 -12 7 -12 5 -1 -9 8 -9 11 -21 7 -27 -9 -14 -35 -13 -35 3 0 8 -3 7
-10 -3 -8 -13 -11 -13 -22 -1 -9 9 -9 12 -1 7 16 -9 45 36 37 58 -9 24 2 19
21 -10z m31 -99 c-4 -14 -11 -25 -16 -25 -15 0 -12 58 3 63 16 5 20 -8 13 -38z
m769 -1070 c28 -27 32 -61 10 -92 -13 -18 -12 -22 5 -38 13 -12 20 -31 20 -57
0 -56 -37 -88 -101 -88 -60 0 -97 29 -106 82 -4 30 -1 41 20 61 22 23 23 27 9
41 -23 23 -19 76 7 98 35 28 105 24 136 -7z m385 9 c0 -8 -11 -30 -25 -48 -34
-45 -75 -140 -82 -192 -5 -38 -9 -44 -29 -44 -18 0 -24 5 -24 23 0 39 30 129
61 185 l29 52 -65 0 c-58 0 -65 2 -65 20 0 19 7 20 100 20 84 0 100 -2 100
-16z m228 -1 c-3 -14 -15 -19 -65 -21 -59 -3 -61 -4 -65 -32 -4 -29 -3 -30 37
-30 100 0 139 -109 64 -179 -34 -32 -112 -29 -145 4 -14 14 -24 33 -22 43 4
22 48 30 48 8 0 -9 11 -23 25 -32 23 -15 27 -15 50 0 26 17 41 56 32 80 -3 8
-17 22 -31 31 -23 15 -27 15 -56 0 -17 -9 -39 -15 -48 -13 -16 3 -16 9 -4 81
l14 77 85 0 c75 0 84 -2 81 -17z m212 -60 l0 -78 36 38 c26 27 43 37 67 37
l31 0 -42 -43 -42 -43 45 -67 45 -67 -29 0 c-24 0 -35 9 -61 50 -18 27 -36 47
-41 44 -5 -3 -9 -25 -9 -50 0 -40 -2 -44 -25 -44 l-25 0 0 150 0 150 25 0 c25
0 25 -2 25 -77z m589 10 c-66 -231 -65 -228 -89 -231 -16 -3 -21 0 -18 10 3 7
22 72 43 143 43 151 41 145 65 145 18 0 18 -2 -1 -67z m81 24 l0 -44 53 5 c75
6 85 -8 89 -126 3 -90 2 -92 -19 -92 -22 0 -23 4 -23 79 0 89 -15 117 -54 105
-41 -12 -42 -17 -46 -166 0 -11 -8 -18 -20 -18 -19 0 -20 7 -20 150 0 143 1
150 20 150 17 0 20 -7 20 -43z m-1896 -26 c89 -59 87 -192 -5 -246 -31 -18
-55 -20 -254 -23 -246 -4 -275 1 -275 46 0 49 11 52 190 53 91 1 158 3 148 6
-54 14 -11 145 57 173 37 16 109 11 139 -9z m1426 -23 c0 -9 3 -9 12 0 15 15
73 16 100 1 14 -8 23 -8 31 0 16 16 83 13 101 -5 9 -8 16 -23 16 -32 5 -166 5
-167 -18 -170 -21 -3 -22 0 -22 77 0 90 -14 116 -53 102 -26 -10 -40 -63 -34
-133 3 -45 2 -48 -20 -48 -22 0 -23 3 -23 79 0 85 -14 116 -48 104 -28 -10
-32 -24 -32 -105 0 -76 0 -78 -25 -78 l-25 0 0 110 c0 103 1 110 20 110 11 0
20 -5 20 -12z m-1747 -112 c3 -8 3 -17 0 -20 -11 -10 -191 -7 -198 4 -14 23
11 30 100 30 70 0 94 -3 98 -14z m67 -6 c0 -14 -20 -22 -37 -16 -12 5 -13 9
-3 21 11 14 40 10 40 -5z m790 -70 c0 -15 -7 -20 -25 -20 -18 0 -25 5 -25 20
0 15 7 20 25 20 18 0 25 -5 25 -20z m-2246 -36 c25 -9 19 -24 -9 -24 -24 0
-32 10 -18 23 8 8 8 8 27 1z m-64 -34 c0 -5 -4 -10 -10 -10 -5 0 -10 5 -10 10
0 6 5 10 10 10 6 0 10 -4 10 -10z m1758 -15 c88 -36 110 -162 40 -232 -83 -82
-221 -38 -243 78 -5 27 -2 40 10 52 15 16 6 17 -135 17 -85 0 -160 5 -171 10
-22 12 -26 59 -7 78 20 20 456 17 506 -3z m-1618 -45 c0 -5 -5 -10 -11 -10 -5
0 -7 5 -4 10 3 6 8 10 11 10 2 0 4 -4 4 -10z m-220 -50 c0 -4 -7 -10 -15 -14
-8 -3 -15 -4 -15 -2 0 3 -3 11 -6 19 -4 12 0 14 15 10 12 -3 21 -9 21 -13z
m100 10 c0 -5 -5 -10 -11 -10 -5 0 -7 5 -4 10 3 6 8 10 11 10 2 0 4 -4 4 -10z
m2015 -47 c15 -60 21 -61 35 -4 10 42 16 51 34 51 18 0 25 -10 37 -57 l16 -58
13 58 c10 45 17 57 33 57 11 0 17 -5 14 -12 -2 -7 -13 -46 -23 -85 -24 -96
-46 -99 -72 -11 l-18 63 -18 -63 c-13 -47 -21 -62 -35 -62 -14 0 -22 15 -35
63 -9 34 -19 73 -22 86 -6 19 -3 22 12 19 12 -2 22 -17 29 -45z m225 37 c0 -5
-7 -10 -15 -10 -8 0 -15 5 -15 10 0 6 7 10 15 10 8 0 15 -4 15 -10z m270 -75
l0 -85 -46 0 c-54 0 -73 17 -74 66 0 46 20 68 58 62 28 -4 32 -2 32 19 0 14 6
23 15 23 12 0 15 -16 15 -85z m208 73 c7 -7 12 -18 12 -25 0 -14 -26 -18 -32
-4 -5 14 -42 21 -58 11 -13 -9 -12 -12 4 -25 11 -8 27 -15 36 -15 23 0 60 -29
60 -47 0 -52 -103 -76 -134 -31 -21 30 -20 38 4 38 11 0 20 -4 20 -10 0 -19
39 -31 61 -19 27 14 15 27 -44 49 -45 17 -60 47 -37 76 15 17 91 19 108 2z
m552 -73 l0 -85 -42 0 c-50 0 -78 22 -78 62 0 48 16 68 55 68 28 0 35 4 35 20
0 11 7 20 15 20 12 0 15 -16 15 -85z m-1770 60 c0 -13 -22 -15 -135 -15 -113
0 -135 2 -135 15 0 13 22 15 135 15 113 0 135 -2 135 -15z m740 -80 c0 -51 -3
-65 -15 -65 -12 0 -15 14 -15 65 0 51 3 65 15 65 12 0 15 -14 15 -65z m128 -2
c2 -52 0 -63 -13 -63 -11 0 -15 11 -15 49 0 28 -5 53 -12 57 -17 11 -38 -26
-38 -68 0 -27 -4 -38 -15 -38 -12 0 -15 14 -15 66 l0 65 53 -3 52 -3 3 -62z
m490 55 c7 -7 12 -23 12 -37 0 -24 1 -24 18 9 14 29 23 36 54 38 30 3 40 -1
54 -23 l17 -26 11 23 c17 34 78 37 100 6 27 -38 20 -48 -29 -48 -32 0 -45 -4
-45 -14 0 -18 30 -30 44 -16 12 12 46 13 46 1 0 -19 -30 -32 -67 -29 -30 2
-41 9 -51 31 -11 23 -19 27 -58 27 -31 0 -44 -4 -44 -14 0 -19 30 -29 46 -15
7 6 21 9 30 7 17 -3 17 -4 0 -20 -27 -28 -82 -23 -102 7 l-17 26 -11 -23 c-8
-16 -22 -24 -44 -26 -26 -3 -32 -7 -32 -28 0 -15 -6 -24 -15 -24 -12 0 -15 17
-15 90 l0 90 43 0 c24 0 48 -5 55 -12z m-3135 -169 c-8 -8 -13 -7 -18 2 -5 8
-4 10 3 5 7 -4 12 -2 12 5 0 7 3 9 7 6 4 -4 2 -12 -4 -18z m151 5 c3 -8 2 -12
-4 -9 -6 3 -10 10 -10 16 0 14 7 11 14 -7z m97 -17 c-10 -9 -11 -8 -5 6 3 10
9 15 12 12 3 -3 0 -11 -7 -18z m39 -17 c0 -5 -2 -10 -4 -10 -3 0 -8 5 -11 10
-3 6 -1 10 4 10 6 0 11 -4 11 -10z m37 4 c-3 -3 -12 -4 -19 -1 -8 3 -5 6 6 6
11 1 17 -2 13 -5z m-347 -12 c0 -5 -7 -9 -15 -9 -8 0 -15 4 -15 9 0 4 7 8 15
8 8 0 15 -4 15 -8z m-260 -122 c0 -5 -4 -10 -10 -10 -5 0 -10 5 -10 10 0 6 5
10 10 10 6 0 10 -4 10 -10z"/>
<path d="M4220 930 c-22 -22 -18 -45 10 -60 24 -13 48 -3 55 21 7 22 1 35 -25
49 -15 8 -24 6 -40 -10z"/>
<path d="M4229 823 c-23 -6 -42 -47 -34 -72 18 -57 105 -41 105 19 0 25 -31
63 -50 59 -3 -1 -12 -3 -21 -6z"/>
<path d="M3767 870 c-35 -31 -50 -69 -36 -92 5 -8 14 2 27 33 11 26 28 49 37
53 87 33 160 -56 104 -128 l-20 -26 -219 0 c-120 0 -225 -3 -234 -6 -47 -18 6
-24 220 -24 l236 0 28 29 c52 52 52 113 -2 163 -42 39 -95 39 -141 -2z"/>
<path d="M3802 828 c-7 -7 -12 -22 -12 -34 0 -13 -10 -30 -22 -38 -21 -15 -20
-16 33 -16 58 0 89 18 89 52 0 36 -62 62 -88 36z"/>
<path d="M3410 580 c0 -6 80 -10 220 -10 233 0 260 -5 279 -47 26 -58 1 -110
-59 -119 -43 -7 -85 22 -95 66 -7 32 -22 39 -31 16 -14 -36 61 -116 109 -116
33 0 82 29 100 59 26 45 22 85 -14 126 l-31 35 -239 0 c-153 0 -239 -4 -239
-10z"/>
<path d="M3760 532 c0 -2 7 -10 15 -18 8 -9 15 -26 15 -38 0 -14 10 -28 25
-36 20 -11 28 -10 50 4 53 35 24 83 -53 88 -28 2 -52 2 -52 0z"/>
<path d="M4592 458 c-17 -17 -15 -53 4 -68 12 -11 18 -10 31 3 13 13 15 23 7
44 -11 31 -25 38 -42 21z"/>
<path d="M5352 458 c-17 -17 -15 -53 4 -68 12 -11 18 -10 31 3 13 13 15 23 7
44 -11 31 -25 38 -42 21z"/>
<path d="M4963 463 c-15 -5 -18 -69 -4 -77 29 -18 51 25 35 68 -6 17 -11 18
-31 9z"/>
<path d="M5087 464 c-14 -14 -6 -24 19 -24 16 0 24 5 22 13 -5 14 -31 21 -41
11z"/>
<path d="M5223 463 c-24 -9 -13 -23 18 -23 27 0 30 2 19 15 -13 16 -17 17 -37
8z"/>
<path d="M4720 3370 c0 -13 30 -13 50 0 11 7 7 10 -17 10 -18 0 -33 -4 -33
-10z"/>
<path d="M4640 3290 c0 -13 30 -13 50 0 11 7 7 10 -17 10 -18 0 -33 -4 -33
-10z"/>
<path d="M4000 3246 c0 -2 8 -10 18 -17 15 -13 16 -12 3 4 -13 16 -21 21 -21
13z"/>
<path d="M4560 3210 c0 -13 30 -13 50 0 11 7 7 10 -17 10 -18 0 -33 -4 -33
-10z"/>
<path d="M4100 3150 c6 -11 13 -20 16 -20 2 0 0 9 -6 20 -6 11 -13 20 -16 20
-2 0 0 -9 6 -20z"/>
<path d="M4480 3130 c0 -13 30 -13 50 0 11 7 7 10 -17 10 -18 0 -33 -4 -33
-10z"/>
<path d="M4130 3045 c-7 -9 -8 -15 -2 -15 5 0 12 7 16 15 3 8 4 15 2 15 -2 0
-9 -7 -16 -15z"/>
<path d="M4400 3050 c0 -13 30 -13 50 0 11 7 7 10 -17 10 -18 0 -33 -4 -33
-10z"/>
<path d="M4040 3016 c0 -2 7 -7 16 -10 8 -3 12 -2 9 4 -6 10 -25 14 -25 6z"/>
<path d="M4320 2970 c0 -13 30 -13 50 0 11 7 7 10 -17 10 -18 0 -33 -4 -33
-10z"/>
<path d="M4075 2889 c-4 -6 -5 -12 -2 -15 2 -3 7 2 10 11 7 17 1 20 -8 4z"/>
<path d="M4240 2890 c0 -13 30 -13 50 0 11 7 7 10 -17 10 -18 0 -33 -4 -33
-10z"/>
<path d="M4005 2881 c-6 -11 13 -26 22 -17 4 3 0 6 -8 6 -11 0 -11 2 1 10 9 6
10 10 3 10 -6 0 -14 -4 -18 -9z"/>
<path d="M4043 2859 c-2 -23 3 -25 10 -4 4 8 3 16 -1 19 -4 3 -9 -4 -9 -15z"/>
<path d="M4076 2852 c-3 -5 1 -9 9 -9 8 0 12 4 9 9 -3 4 -7 8 -9 8 -2 0 -6 -4
-9 -8z"/>
<path d="M4009 2833 c-13 -16 -12 -17 4 -4 9 7 17 15 17 17 0 8 -8 3 -21 -13z"/>
<path d="M4170 2810 c0 -13 20 -13 40 0 12 8 9 10 -12 10 -16 0 -28 -4 -28
-10z"/>
<path d="M3747 2785 c-4 -8 -3 -16 1 -19 4 -3 9 4 9 15 2 23 -3 25 -10 4z"/>
<path d="M3927 2765 c-4 -8 -3 -16 1 -19 4 -3 9 4 9 15 2 23 -3 25 -10 4z"/>
<path d="M3960 2765 c-7 -9 -10 -18 -7 -22 4 -3 1 -13 -5 -22 -7 -9 0 -5 15 8
28 25 38 43 12 21 -18 -15 -20 1 -3 18 7 7 9 12 6 12 -3 0 -11 -7 -18 -15z"/>
<path d="M3786 2728 c3 -5 10 -6 15 -3 13 9 11 12 -6 12 -8 0 -12 -4 -9 -9z"/>
<path d="M3885 2711 c-3 -5 -2 -12 3 -15 5 -3 9 1 9 9 0 17 -3 19 -12 6z"/>
<path d="M3660 2675 c13 -14 26 -25 28 -25 3 0 -5 11 -18 25 -13 14 -26 25
-28 25 -3 0 5 -11 18 -25z"/>
<path d="M3696 2628 c3 -5 10 -6 15 -3 13 9 11 12 -6 12 -8 0 -12 -4 -9 -9z"/>
<path d="M3743 2613 c9 -11 14 -23 10 -28 -5 -4 -2 -5 5 -1 18 10 15 19 -10
35 -22 13 -23 13 -5 -6z"/>
<path d="M4019 2603 c-13 -16 -12 -17 4 -4 9 7 17 15 17 17 0 8 -8 3 -21 -13z"/>
<path d="M3699 2593 c-13 -16 -12 -17 4 -4 16 13 21 21 13 21 -2 0 -10 -8 -17
-17z"/>
<path d="M3815 2591 c-3 -5 0 -13 6 -17 7 -4 9 -3 5 4 -3 5 0 13 6 15 9 4 10
6 1 6 -6 1 -14 -3 -18 -8z"/>
<path d="M3884 2509 c-4 -6 -21 -9 -43 -5 -20 3 -29 3 -21 -1 8 -3 18 -10 21
-16 10 -14 56 0 56 18 0 18 -3 19 -13 4z"/>
<path d="M3686 2452 c-3 -5 1 -9 9 -9 8 0 12 4 9 9 -3 4 -7 8 -9 8 -2 0 -6 -4
-9 -8z"/>
<path d="M3426 2408 c3 -5 10 -6 15 -3 13 9 11 12 -6 12 -8 0 -12 -4 -9 -9z"/>
<path d="M3741 2411 c-1 -8 -8 -11 -21 -8 -31 8 -47 -29 -23 -55 18 -20 18
-21 -4 -14 -17 5 -23 2 -29 -16 -3 -13 -12 -26 -18 -30 -6 -5 0 -8 14 -8 19 0
32 11 53 44 21 34 32 43 47 39 21 -6 28 11 10 22 -8 5 -7 12 2 23 11 15 11 15
-4 4 -13 -10 -17 -10 -21 0 -4 10 -6 10 -6 -1z m1 -20 c2 7 10 4 18 -7 13 -16
13 -17 -2 -11 -11 4 -22 -1 -31 -14 -13 -17 -16 -18 -27 -4 -7 9 -10 18 -6 22
3 3 6 1 6 -5 0 -7 5 -12 10 -12 7 0 7 7 0 21 -10 19 -10 20 8 10 15 -8 21 -8
24 0z m-48 -82 c-3 -5 -10 -7 -15 -3 -5 3 -7 10 -3 15 3 5 10 7 15 3 5 -3 7
-10 3 -15z"/>
<path d="M3804 2404 c3 -9 -1 -11 -12 -7 -14 6 -15 4 -5 -9 7 -8 10 -18 6 -21
-3 -4 1 -7 10 -7 10 0 17 3 17 8 0 4 3 16 6 28 4 15 1 21 -11 21 -9 0 -14 -6
-11 -13z"/>
<path d="M3497 2373 c3 -7 9 -10 14 -7 14 8 11 21 -5 21 -8 0 -12 -6 -9 -14z"/>
<path d="M3460 2370 c0 -6 7 -13 15 -16 8 -4 12 -11 8 -17 -3 -6 -1 -7 5 -3
15 9 15 9 -8 29 -11 9 -20 12 -20 7z"/>
<path d="M3572 2316 c7 -8 15 -12 17 -11 5 6 -10 25 -20 25 -5 0 -4 -6 3 -14z"/>
<path d="M3517 2306 c-3 -8 3 -22 14 -32 11 -10 19 -12 19 -5 0 6 -6 14 -14
17 -8 3 -12 12 -9 20 3 8 3 14 0 14 -3 0 -7 -6 -10 -14z"/>
<path d="M3399 2297 c6 -8 7 -18 3 -22 -4 -5 -1 -5 6 -1 10 6 10 11 1 22 -6 8
-14 14 -16 14 -3 0 0 -6 6 -13z"/>
<path d="M3557 2290 c8 -10 9 -21 3 -30 -15 -23 -12 -40 8 -39 10 0 12 3 5 6
-17 6 -17 24 -1 21 14 -3 37 -28 38 -41 0 -5 -9 -5 -21 -2 -18 6 -20 5 -10
-14 20 -37 47 -25 42 18 -2 7 2 10 8 7 5 -4 12 -2 16 3 3 5 -3 15 -12 21 -16
10 -16 11 4 7 13 -3 25 -2 27 2 3 4 -7 8 -20 9 -15 1 -27 -5 -31 -14 -4 -12
-8 -13 -14 -3 -4 8 -1 18 9 27 9 7 12 11 5 8 -6 -4 -14 0 -16 6 -4 8 -6 7 -6
-4 -1 -9 -5 -20 -11 -23 -5 -3 -7 0 -4 8 3 8 -3 20 -13 28 -16 12 -17 12 -6
-1z"/>
<path d="M3773 2257 c4 -11 2 -14 -7 -11 -9 3 -13 -3 -13 -18 0 -28 28 -35 43
-10 8 13 5 22 -10 36 -15 15 -18 16 -13 3z m17 -31 c0 -3 -4 -8 -10 -11 -5 -3
-10 -1 -10 4 0 6 5 11 10 11 6 0 10 -2 10 -4z"/>
<path d="M3129 2233 c-13 -17 -13 -17 6 -3 11 8 22 16 24 17 2 2 0 3 -6 3 -6
0 -17 -8 -24 -17z"/>
<path d="M3450 2221 c5 -11 15 -23 21 -27 6 -3 3 5 -6 20 -20 30 -30 35 -15 7z"/>
<path d="M3940 2173 c0 -15 -2 -16 -10 -3 -8 13 -13 11 -36 -11 -19 -20 -23
-29 -13 -34 8 -6 10 -4 4 4 -6 10 -3 11 14 2 25 -14 28 -23 4 -14 -12 5 -14 3
-8 -8 6 -11 5 -12 -6 -1 -23 21 -27 13 -28 -57 0 -56 4 -74 21 -96 58 -74 143
-39 163 67 4 21 4 46 0 55 -4 10 -9 27 -10 37 -1 11 -7 22 -14 24 -6 2 -9 8
-5 13 3 5 -1 9 -10 9 -8 0 -16 4 -18 9 -1 4 -13 12 -25 15 -18 6 -23 3 -23
-11z"/>
<path d="M3169 2083 c-13 -16 -12 -17 4 -4 16 13 21 21 13 21 -2 0 -10 -8 -17
-17z"/>
<path d="M3360 2010 c0 -13 30 -13 50 0 11 7 7 10 -17 10 -18 0 -33 -4 -33
-10z"/>
<path d="M3140 1961 c0 -6 4 -13 10 -16 6 -3 7 1 4 9 -7 18 -14 21 -14 7z"/>
<path d="M2987 1930 c-3 -11 -1 -20 4 -20 5 0 9 9 9 20 0 11 -2 20 -4 20 -2 0
-6 -9 -9 -20z"/>
<path d="M2770 1936 c0 -2 8 -10 18 -17 15 -13 16 -12 3 4 -13 16 -21 21 -21
13z"/>
<path d="M3280 1930 c0 -13 30 -13 50 0 11 7 7 10 -17 10 -18 0 -33 -4 -33
-10z"/>
<path d="M2910 1895 c-11 -13 -11 -18 0 -28 10 -9 11 -9 6 1 -4 7 -2 19 4 27
7 8 10 15 7 15 -2 0 -10 -7 -17 -15z"/>
<path d="M3105 1889 c-4 -6 -5 -12 -2 -15 2 -3 7 2 10 11 7 17 1 20 -8 4z"/>
<path d="M2656 1882 c-3 -5 1 -9 9 -9 8 0 12 4 9 9 -3 4 -7 8 -9 8 -2 0 -6 -4
-9 -8z"/>
<path d="M3190 1875 c0 -26 18 -38 46 -29 l29 8 -30 4 c-16 2 -33 9 -37 15 -4
7 -8 8 -8 2z"/>
<path d="M3038 1863 c7 -3 16 -2 19 1 4 3 -2 6 -13 5 -11 0 -14 -3 -6 -6z"/>
<path d="M3120 1770 c0 -13 30 -13 50 0 11 7 7 10 -17 10 -18 0 -33 -4 -33
-10z"/>
<path d="M3040 1690 c0 -13 30 -13 50 0 11 7 7 10 -17 10 -18 0 -33 -4 -33
-10z"/>
<path d="M2960 1610 c0 -13 30 -13 50 0 11 7 7 10 -17 10 -18 0 -33 -4 -33
-10z"/>
<path d="M2880 1530 c0 -13 30 -13 50 0 11 7 7 10 -17 10 -18 0 -33 -4 -33
-10z"/>
<path d="M2800 1450 c0 -13 30 -13 50 0 11 7 7 10 -17 10 -18 0 -33 -4 -33
-10z"/>
<path d="M2720 1370 c0 -13 30 -13 50 0 11 7 7 10 -17 10 -18 0 -33 -4 -33
-10z"/>
<path d="M2640 1290 c0 -13 30 -13 50 0 11 7 7 10 -17 10 -18 0 -33 -4 -33
-10z"/>
<path d="M2560 1210 c0 -13 30 -13 50 0 11 7 7 10 -17 10 -18 0 -33 -4 -33
-10z"/>
<path d="M2480 1130 c0 -13 30 -13 50 0 11 7 7 10 -17 10 -18 0 -33 -4 -33
-10z"/>
<path d="M2400 1050 c0 -13 30 -13 50 0 11 7 7 10 -17 10 -18 0 -33 -4 -33
-10z"/>
<path d="M2320 970 c0 -13 30 -13 50 0 11 7 7 10 -17 10 -18 0 -33 -4 -33 -10z"/>
<path d="M1945 950 c3 -5 8 -10 11 -10 2 0 4 5 4 10 0 6 -5 10 -11 10 -5 0 -7
-4 -4 -10z"/>
<path d="M1865 940 c-3 -5 -1 -10 4 -10 6 0 11 5 11 10 0 6 -2 10 -4 10 -3 0
-8 -4 -11 -10z"/>
<path d="M2032 881 c-12 -21 -19 -41 -15 -45 3 -3 2 -6 -4 -6 -9 0 -29 -33
-31 -53 -1 -4 -8 -15 -17 -23 -18 -18 -18 -24 -4 -44 8 -12 9 -10 4 9 -6 18
-4 22 6 15 35 -22 48 -3 21 29 -11 13 -10 17 5 26 10 6 14 11 10 11 -4 0 1 9
12 21 21 23 78 32 99 16 7 -5 15 -7 19 -3 3 3 1 6 -5 6 -6 0 -9 7 -5 16 3 8
11 13 18 10 8 -3 12 2 11 12 -3 17 -27 25 -25 8 1 -10 -21 -26 -38 -26 -7 0
-10 9 -8 21 3 17 1 19 -10 9 -8 -7 -15 -7 -19 -1 -4 5 2 14 11 20 15 9 15 10
2 11 -8 0 -25 -17 -37 -39z m45 -18 c0 -7 -4 -13 -9 -13 -4 0 -8 5 -8 12 0 6
-10 3 -21 -8 -22 -19 -22 -19 -8 3 14 23 46 27 46 6z m-83 -124 c-3 -5 -10 -7
-15 -3 -5 3 -7 10 -3 15 3 5 10 7 15 3 5 -3 7 -10 3 -15z"/>
<path d="M1953 886 c5 -15 24 -18 24 -3 0 8 -6 14 -14 14 -7 0 -12 -5 -10 -11z"/>
<path d="M2220 890 c0 -13 50 -13 70 0 11 7 4 10 -27 10 -24 0 -43 -4 -43 -10z"/>
<path d="M1887 873 c3 -7 6 -13 8 -13 2 0 5 6 8 13 3 8 -1 14 -8 14 -7 0 -11
-6 -8 -14z"/>
<path d="M1496 872 c-3 -5 1 -9 9 -9 8 0 12 4 9 9 -3 4 -7 8 -9 8 -2 0 -6 -4
-9 -8z"/>
<path d="M2170 831 c0 -12 19 -25 45 -28 18 -3 18 -2 -2 17 -23 21 -43 26 -43
11z"/>
<path d="M1920 826 c0 -2 7 -7 16 -10 8 -3 12 -2 9 4 -6 10 -25 14 -25 6z"/>
<path d="M1815 800 c-16 -7 -17 -9 -3 -9 9 -1 20 4 23 9 7 11 7 11 -20 0z"/>
<path d="M2082 790 c10 -16 10 -24 0 -40 -15 -25 -15 -40 0 -40 6 0 8 3 5 6
-3 4 -2 15 4 26 12 22 4 68 -11 68 -6 0 -5 -9 2 -20z"/>
<path d="M2059 790 c-1 -3 -3 -18 -5 -34 -3 -27 -2 -28 13 -14 12 12 13 20 4
34 -6 11 -11 17 -12 14z"/>
<path d="M1862 745 c4 -4 2 -15 -4 -24 -7 -9 -8 -13 -4 -9 5 4 16 2 25 -5 14
-10 14 -10 4 4 -7 9 -10 18 -7 21 3 3 -1 9 -8 14 -7 4 -10 4 -6 -1z"/>
<path d="M1983 699 c-9 -9 -8 -15 3 -26 18 -19 18 -33 -1 -33 -8 0 -15 -8 -15
-18 0 -11 7 -18 20 -18 12 0 20 7 20 17 0 20 35 53 49 45 5 -4 12 -3 15 2 2 4
-6 9 -20 10 -13 1 -24 -3 -24 -8 0 -12 -22 -9 -32 5 -4 5 -2 15 4 22 13 16 -4
17 -19 2z"/>
<path d="M1843 685 c0 -8 4 -12 9 -9 5 3 6 10 3 15 -9 13 -12 11 -12 -6z"/>
<path d="M1743 675 c0 -8 4 -12 9 -9 5 3 6 10 3 15 -9 13 -12 11 -12 -6z"/>
<path d="M1695 670 c3 -5 8 -10 11 -10 2 0 4 5 4 10 0 6 -5 10 -11 10 -5 0 -7
-4 -4 -10z"/>
<path d="M1934 673 c4 -4 16 -8 28 -10 28 -4 18 6 -12 12 -12 2 -20 1 -16 -2z"/>
<path d="M1890 610 c0 -5 11 -10 25 -10 14 0 25 5 25 10 0 6 -11 10 -25 10
-14 0 -25 -4 -25 -10z"/>
<path d="M1875 567 c11 -5 23 -15 27 -21 4 -6 6 -2 6 9 -1 14 -10 20 -27 22
-23 1 -24 0 -6 -10z"/>
<path d="M1860 550 c0 -5 -5 -9 -12 -7 -6 1 -13 -6 -14 -16 -1 -11 0 -12 3 -3
3 12 10 13 29 6 22 -9 24 -8 14 10 -12 22 -20 26 -20 10z"/>
<path d="M1460 546 c0 -2 7 -7 16 -10 8 -3 12 -2 9 4 -6 10 -25 14 -25 6z"/>
<path d="M1915 527 l-20 -20 25 13 c32 16 33 17 23 23 -4 2 -17 -5 -28 -16z"/>
<path d="M2105 540 c-3 -5 -2 -10 4 -10 5 0 13 5 16 10 3 6 2 10 -4 10 -5 0
-13 -4 -16 -10z"/>
<path d="M1373 515 c-3 -9 -3 -18 -1 -21 3 -3 8 4 11 16 6 23 -1 27 -10 5z"/>
<path d="M1920 505 c-25 -14 -25 -14 13 -15 26 0 37 4 35 12 -6 18 -20 19 -48
3z"/>
<path d="M1780 500 c0 -5 5 -10 11 -10 5 0 7 5 4 10 -3 6 -8 10 -11 10 -2 0
-4 -4 -4 -10z"/>
<path d="M1850 502 c0 -5 7 -9 15 -9 8 0 15 4 15 9 0 4 -7 8 -15 8 -8 0 -15
-4 -15 -8z"/>
<path d="M1629 483 c-13 -16 -12 -17 4 -4 16 13 21 21 13 21 -2 0 -10 -8 -17
-17z"/>
<path d="M1683 493 c9 -2 23 -2 30 0 6 3 -1 5 -18 5 -16 0 -22 -2 -12 -5z"/>
<path d="M1735 490 c3 -5 8 -10 11 -10 2 0 4 5 4 10 0 6 -5 10 -11 10 -5 0 -7
-4 -4 -10z"/>
<path d="M1825 416 c0 -35 3 -62 8 -59 4 2 7 31 7 64 0 32 -3 59 -7 59 -5 0
-8 -29 -8 -64z"/>
<path d="M1690 455 c-11 -13 -10 -14 2 -10 12 5 14 0 11 -18 -3 -14 -1 -27 5
-31 9 -6 10 59 0 69 -3 3 -11 -1 -18 -10z"/>
<path d="M1933 458 c-8 -12 -10 -30 -3 -43 1 -3 3 -10 4 -17 2 -22 23 -18 34
7 6 14 8 25 3 25 -5 0 -8 7 -7 16 1 21 -18 29 -31 12z m23 -27 c0 -22 -4 -27
-13 -19 -9 7 -9 14 0 29 15 24 15 24 13 -10z"/>
<path d="M1556 447 c-14 -10 -15 -14 -4 -14 7 0 19 6 26 14 7 7 9 13 4 13 -4
0 -16 -6 -26 -13z"/>
<path d="M1370 425 c0 -8 2 -15 4 -15 2 0 6 7 10 15 3 8 1 15 -4 15 -6 0 -10
-7 -10 -15z"/>
<path d="M1409 423 c-13 -16 -12 -17 4 -4 16 13 21 21 13 21 -2 0 -10 -8 -17
-17z"/>
<path d="M1496 427 c3 -10 9 -15 12 -12 3 3 0 11 -7 18 -10 9 -11 8 -5 -6z"/>
<path d="M1620 421 c0 -6 4 -13 10 -16 6 -3 7 1 4 9 -7 18 -14 21 -14 7z"/>
<path d="M1680 399 c0 -16 4 -28 9 -25 8 5 3 56 -5 56 -2 0 -4 -14 -4 -31z"/>
<path d="M1370 396 c0 -2 7 -7 16 -10 8 -3 12 -2 9 4 -6 10 -25 14 -25 6z"/>
<path d="M1493 393 c4 -6 1 -18 -7 -26 -13 -12 -11 -14 15 -13 22 1 26 3 16
11 -8 6 -14 14 -15 18 0 5 -4 12 -8 15 -4 4 -4 2 -1 -5z"/>
<path d="M1556 388 c3 -5 10 -6 15 -3 13 9 11 12 -6 12 -8 0 -12 -4 -9 -9z"/>
<path d="M1373 365 c0 -8 4 -12 9 -9 5 3 6 10 3 15 -9 13 -12 11 -12 -6z"/>
<path d="M1624 366 c1 -8 5 -18 8 -22 4 -3 5 1 4 10 -1 8 -5 18 -8 22 -4 3 -5
-1 -4 -10z"/>
<path d="M1544 353 c8 -8 56 -11 51 -3 -3 4 -16 8 -30 8 -14 0 -24 -3 -21 -5z"/>
<path d="M1666 351 c-4 -5 1 -8 9 -7 21 3 31 16 12 16 -9 0 -18 -4 -21 -9z"/>
<path d="M1716 348 c3 -4 0 -8 -5 -8 -6 0 -11 -4 -11 -10 0 -5 9 -10 19 -10
13 0 19 6 18 18 0 10 -7 19 -14 19 -6 0 -10 -4 -7 -9z"/>
</g>
</svg>
